<svg xmlns="http://www.w3.org/2000/svg" viewBox="0 0 11.94 16.22"><path d="M4,15.74l-.13-.05c-.27-.11-.3-.14-.17-.4s.41-.72.62-1.08.09-.4-.16-.49A6,6,0,0,1,.55,10a7.8,7.8,0,0,1,.8-7.28A5.7,5.7,0,0,1,4.74.19,5.11,5.11,0,0,1,10,1.76a7.1,7.1,0,0,1,1.93,4.88,7.67,7.67,0,0,1-1.73,5.22,5.79,5.79,0,0,1-3.4,2.08c-.28.05-.35.21-.24.49.19.44.37.89.55,1.34,0,.06,0,.14.07.21s0,.24-.17.24-.78-.09-1.47-.19S4.16,15.79,4,15.74ZM10.2,6.56c0,.08,0,.23,0,.38a.4.4,0,0,0,.51.43.47.47,0,0,0,.42-.46,5.72,5.72,0,0,0-.69-3.24,8.42,8.42,0,0,0-.56-.9.49.49,0,0,0-.69-.1c-.23.16-.25.36-.06.63l.05.08A5.5,5.5,0,0,1,10.2,6.56Z"/></svg>